<svg xmlns="http://www.w3.org/2000/svg" xmlns:xlink="http://www.w3.org/1999/xlink" width="300" height="72" viewBox="0 0 300 72">
  <defs>
    <clipPath id="clip-Fermador-logo">
      <rect width="300" height="72"/>
    </clipPath>
  </defs>
  <g id="Fermador-logo" clip-path="url(#clip-Fermador-logo)">
    <g id="Group_10" data-name="Group 10" transform="translate(-663.919 472.277)">
      <path id="Path_107" data-name="Path 107" d="M571.078,725.844c-.873,3.633-3.727,3.732-3.727,3.732h-.937a.9.9,0,0,0-.932.914l-.006,1.887a.924.924,0,0,0,.932.932h12.135s7.459,0,7.465-7.465v-1.869c0-2.057,1.865-3.264,3.74-3.727l10.26-3.422a1.386,1.386,0,0,0,.931-1.248v-5.6a2.217,2.217,0,0,0-.931-1.578l-.006-.006c-2.731-1.945-10.77-8.016-13.192-13.723-3.457-8.127,5.838-14.894,13.186-8.859l.012-.006s.931.381.931-1.02v-12.13a.912.912,0,0,0-.931-.932H566.414a.916.916,0,0,0-.938.926l.006,1.894a.894.894,0,0,0,.932.908h.006l.931.006s2.79,0,3.727,3.727c0,0,5.6,23.332,0,46.66" transform="translate(103.443 -1139)" fill="#e25412"/>
      <path id="Path_108" data-name="Path 108" d="M633.6,725.844c.867,3.633,3.727,3.732,3.727,3.732h.937a.894.894,0,0,1,.926.914l.012,1.887a.934.934,0,0,1-.932.932H626.131s-7.461,0-7.467-7.465v-1.869c0-2.057-1.857-3.264-3.732-3.727l-10.26-3.422a1.389,1.389,0,0,1-.937-1.248v-5.589s.006,0,.006-.012a2.217,2.217,0,0,1,.931-1.578v-.006c2.737-1.945,10.776-8.016,13.2-13.723,3.445-8.127-5.836-14.894-13.19-8.859l-.006-.006s-.931.381-.931-1.02c0,0-.006,0-.006,0V672.666c0-.006.006-.006.006-.011a.912.912,0,0,1,.931-.932h33.594a.926.926,0,0,1,.938.926l-.012,1.894a.893.893,0,0,1-.926.908h-.006l-.926.006s-2.795,0-3.732,3.727c0,0-5.6,23.332,0,46.66" transform="translate(103.443 -1139)" fill="#f8820a"/>
      <path id="Path_109" data-name="Path 109" d="M824.609,720.248a13.543,13.543,0,0,1-4.979-.878,10.661,10.661,0,0,1-3.844-2.538,11.521,11.521,0,0,1-2.468-4.084,16.188,16.188,0,0,1-.878-5.521,15.981,15.981,0,0,1,.9-5.584,11.461,11.461,0,0,1,2.492-4.078,10.541,10.541,0,0,1,3.849-2.5,14.812,14.812,0,0,1,9.857,0,10.262,10.262,0,0,1,3.815,2.5,11.721,11.721,0,0,1,2.479,4.031,15.681,15.681,0,0,1,.9,5.5,16.8,16.8,0,0,1-.879,5.615,11.632,11.632,0,0,1-2.454,4.125,10.286,10.286,0,0,1-3.82,2.538,13.512,13.512,0,0,1-4.972.878m0-4.435a6.53,6.53,0,0,0,2.285-.381,3.849,3.849,0,0,0,1.723-1.295,6.593,6.593,0,0,0,1.086-2.484,17.27,17.27,0,0,0,.375-3.975v-1.09a17.834,17.834,0,0,0-.351-3.92,6.054,6.054,0,0,0-1.045-2.39,3.461,3.461,0,0,0-1.693-1.2,7.612,7.612,0,0,0-2.38-.334,7.857,7.857,0,0,0-2.408.334,3.642,3.642,0,0,0-1.745,1.177,5.662,5.662,0,0,0-1.062,2.344,17.544,17.544,0,0,0-.345,3.809v1.131a17.1,17.1,0,0,0,.392,4.044,7.171,7.171,0,0,0,1.114,2.532,3.769,3.769,0,0,0,1.74,1.318,6.729,6.729,0,0,0,2.314.381" transform="translate(103.443 -1139)" fill="#73172a"/>
      <path id="Path_110" data-name="Path 110" d="M671.982,688.887H653.248a.916.916,0,0,0-.932.937v28.831a.908.908,0,0,0,.932.925h5.018a.908.908,0,0,0,.932-.925V708.3a.915.915,0,0,1,.936-.932h9.822a.917.917,0,0,0,.936-.937v-2.895a.91.91,0,0,0-.936-.931h-9.822a.917.917,0,0,1-.936-.938V694.91a.915.915,0,0,1,.936-.931h11.848a.914.914,0,0,0,.937-.932v-3.223a.918.918,0,0,0-.937-.937" transform="translate(103.443 -1139)" fill="#73172a"/>
      <path id="Path_111" data-name="Path 111" d="M695.738,717.448l-.539-2.209a.877.877,0,0,0-1.16-.633l-.017-.03c-.879.27-1.764.545-2.584.745a16.66,16.66,0,0,1-3.829.392,11.332,11.332,0,0,1-2.712-.281,4.317,4.317,0,0,1-1.934-1.02,4.547,4.547,0,0,1-1.148-2.039,13.443,13.443,0,0,1-.4-2.519.8.8,0,0,1,.861-.779h13.93a.918.918,0,0,0,.932-.94V706.43q0-5.95-2.5-9.076c-1.658-2.092-4.373-3.135-8.112-3.135a13.341,13.341,0,0,0-4.734.8,9.611,9.611,0,0,0-3.7,2.426,11.3,11.3,0,0,0-2.432,4.054,16.661,16.661,0,0,0-.873,5.678q0,6.471,3.111,9.77t9.294,3.3a19.208,19.208,0,0,0,5.111-.632,30.052,30.052,0,0,0,2.865-.932,1.106,1.106,0,0,0,.568-1.236m-13.9-15.852a5.107,5.107,0,0,1,1.06-2.051,3.183,3.183,0,0,1,1.6-.937,8.482,8.482,0,0,1,2.121-.241,7.105,7.105,0,0,1,2,.258,2.906,2.906,0,0,1,1.442.961,4.845,4.845,0,0,1,.851,1.94,14.02,14.02,0,0,1,.27,2.795.88.88,0,0,1-.922.879h-7.987a.829.829,0,0,1-.873-.8,14.237,14.237,0,0,1,.434-2.807" transform="translate(103.443 -1139)" fill="#73172a"/>
      <path id="Path_112" data-name="Path 112" d="M755.371,697.372a5.036,5.036,0,0,0-.75-1.084,6.606,6.606,0,0,0-3.9-1.945,11.945,11.945,0,0,0-1.758-.123,9.183,9.183,0,0,0-3.129.492,14.227,14.227,0,0,0-1.324.539,4.932,4.932,0,0,0-1.576,1.406l-.5.715-.451.633c-.65.9-1.084.041-1.107,0l-.317-.633-.421-.855a4.083,4.083,0,0,0-1.289-1.407,8.617,8.617,0,0,0-1.313-.539,11.387,11.387,0,0,0-3.234-.351,8.735,8.735,0,0,0-3.024.468c-.433.159-.82.317-1.177.469a4.914,4.914,0,0,0-1.594,1.36l-.61.855-.38.533c-.663.932-1.114,0-1.114,0l-1.084-2.238a1.667,1.667,0,0,0-1.379-.932h-2.425a.913.913,0,0,0-.932.932v22.988a.911.911,0,0,0,.932.926h4.543a.914.914,0,0,0,.937-.926v-17a1.917,1.917,0,0,1,.832-1.453,9.753,9.753,0,0,1,1.406-.726,7.391,7.391,0,0,1,2.76-.452,6.282,6.282,0,0,1,1.412.147,2.287,2.287,0,0,1,1.037.515,2.494,2.494,0,0,1,.668,1.108,6.139,6.139,0,0,1,.235,1.863v16a.914.914,0,0,0,.937.926h4.535a.911.911,0,0,0,.932-.926v-17a1.931,1.931,0,0,1,.838-1.453,9.577,9.577,0,0,1,1.43-.726,7.392,7.392,0,0,1,2.73-.452,6.9,6.9,0,0,1,1.488.147,2.292,2.292,0,0,1,1.061.515,2.268,2.268,0,0,1,.633,1.108,6.673,6.673,0,0,1,.211,1.863v16a.914.914,0,0,0,.937.926h4.547a.914.914,0,0,0,.937-.926V703.173a11.848,11.848,0,0,0-1.189-5.8" transform="translate(103.443 -1139)" fill="#73172a"/>
      <path id="Path_113" data-name="Path 113" d="M716.193,694.542c-.158-.035-.275-.082-.456-.111l-.142-.018a.139.139,0,0,1-.052-.006c-.211-.029-.428-.052-.673-.07-.283-.018-.575-.029-.9-.029a8.575,8.575,0,0,0-2.325.31c-.357.1-.685.2-.991.311a3.494,3.494,0,0,0-1.506,1.306l-1.377,2.192c-.561.879-.936.1-.983.011l-1.185-2.771a1.569,1.569,0,0,0-1.336-.932h-2.419a.913.913,0,0,0-.932.932v22.988a.911.911,0,0,0,.932.926h4.54a.916.916,0,0,0,.939-.926V702.317a1.568,1.568,0,0,1,.661-1.218,13.361,13.361,0,0,1,1.84-.78,10.011,10.011,0,0,1,2.877-.4,14.424,14.424,0,0,1,1.951.117c.187.029.322.059.5.094l.012-.012a.891.891,0,0,0,1.078-.756v-.006l.592-3.685v-.006a1,1,0,0,0-.639-1.125" transform="translate(103.443 -1139)" fill="#73172a"/>
      <path id="Path_114" data-name="Path 114" d="M855.783,694.542c-.158-.035-.281-.082-.463-.111l-.135-.018a.21.21,0,0,1-.058-.006c-.211-.029-.428-.052-.674-.07-.276-.018-.568-.029-.9-.029a8.741,8.741,0,0,0-2.338.31c-.345.1-.673.2-.978.311a3.453,3.453,0,0,0-1.512,1.306l-1.371,2.192c-.556.879-.943.1-.984.011l-1.184-2.771a1.58,1.58,0,0,0-1.336-.932h-2.42a.914.914,0,0,0-.937.932v22.988a.914.914,0,0,0,.937.926h4.541a.911.911,0,0,0,.932-.926V702.317a1.559,1.559,0,0,1,.668-1.218,13.341,13.341,0,0,1,1.834-.78,10,10,0,0,1,2.871-.4,14.5,14.5,0,0,1,1.963.117c.193.029.328.059.5.094l.006-.012a.889.889,0,0,0,1.078-.756.006.006,0,0,0,.006-.006l.592-3.685v-.006a1,1,0,0,0-.639-1.125" transform="translate(103.443 -1139)" fill="#73172a"/>
      <path id="Path_115" data-name="Path 115" d="M783.633,717.219a.994.994,0,0,0-1.084-.931,1.667,1.667,0,0,1-1.184-.334,2.029,2.029,0,0,1-.322-1.371v-9.424a20.66,20.66,0,0,0-.545-5.1,8.027,8.027,0,0,0-1.717-3.369,6.666,6.666,0,0,0-3.011-1.887,14.78,14.78,0,0,0-4.442-.586,20.287,20.287,0,0,0-5.232.61c-1.236.334-2.461.779-3.668,1.236a1.307,1.307,0,0,0-.551,1.36l.551,2.32a.91.91,0,0,0,1.16.674c.006-.006.012,0,.018,0,1.248-.346,2.39-.639,3.339-.85a16.841,16.841,0,0,1,3.721-.4,8.081,8.081,0,0,1,2.051.211,2.26,2.26,0,0,1,1.2.7,2.712,2.712,0,0,1,.569,1.3,11.894,11.894,0,0,1,.134,1.981v.387a1.018,1.018,0,0,1-.926,1.019l-2.97.287q-5.449.528-7.934,2.362t-2.5,5.75a7.384,7.384,0,0,0,.68,3.345,5.848,5.848,0,0,0,1.816,2.2,7.089,7.089,0,0,0,2.6,1.177,13.188,13.188,0,0,0,3.129.358,12.5,12.5,0,0,0,2.754-.282,10.568,10.568,0,0,0,1.529-.544,3.54,3.54,0,0,0,1.189-1.155l.575-.908s.58-.932,1.1,0v.006l.768,1.377a2.571,2.571,0,0,0,1.248,1.113,9.69,9.69,0,0,0,2.355.293,7.443,7.443,0,0,0,2.338-.3c.217-.07.381-.146.563-.216a1.532,1.532,0,0,0,.791-1.4Zm-10.623-1.482a6.339,6.339,0,0,1-2.836.5,5.112,5.112,0,0,1-3.07-.68,3.409,3.409,0,0,1-.867-2.759v-.135a5.782,5.782,0,0,1,.234-1.8,2.385,2.385,0,0,1,.814-1.154,4.415,4.415,0,0,1,1.53-.7,13.293,13.293,0,0,1,2.343-.407l2.537-.31a.794.794,0,0,1,.926.822v4.541a2.481,2.481,0,0,1-.884,1.652,6.745,6.745,0,0,1-.727.434" transform="translate(103.443 -1139)" fill="#73172a"/>
      <path id="Path_116" data-name="Path 116" d="M807.776,684.786h-4.547a.913.913,0,0,0-.932.932v10.113c0,.932-.932.129-.932.129v.024a10.394,10.394,0,0,0-1.681-1.038,9.276,9.276,0,0,0-3.938-.726,10.913,10.913,0,0,0-3.752.656,8.189,8.189,0,0,0-3.228,2.174,11.252,11.252,0,0,0-2.291,3.978,18.592,18.592,0,0,0-.867,6.106,20.25,20.25,0,0,0,.75,5.873,10.994,10.994,0,0,0,2.15,4.078,8.643,8.643,0,0,0,3.346,2.385,11.954,11.954,0,0,0,4.414.779,10.414,10.414,0,0,0,2.449-.264c.3-.07.568-.146.82-.216a3.445,3.445,0,0,0,1.617-1.213h.006l1-1.336s.7-.932,1.114,0v.006l.679,1.517h.006a1.593,1.593,0,0,0,1.342.932l.006.012h2.467a.92.92,0,0,0,.937-.944V685.718a.914.914,0,0,0-.937-.932M802.3,713.464a2.25,2.25,0,0,1-.891,1.576,9.179,9.179,0,0,1-1.177.627,6.446,6.446,0,0,1-2.6.481,7.238,7.238,0,0,1-2.314-.334,3.555,3.555,0,0,1-1.672-1.178,5.817,5.817,0,0,1-1.038-2.315,16.184,16.184,0,0,1-.357-3.769v-2.268a14.163,14.163,0,0,1,.4-3.767,6.091,6.091,0,0,1,1.066-2.215,3.091,3.091,0,0,1,1.578-1.061,7.142,7.142,0,0,1,1.957-.263,7.988,7.988,0,0,1,3,.5c.393.17.774.34,1.113.527a2.023,2.023,0,0,1,.932,1.512Z" transform="translate(103.443 -1139)" fill="#73172a"/>
    </g>
  </g>
</svg>
