<?xml version="1.0" encoding="utf-8"?>
<!-- Generator: Adobe Illustrator 16.0.0, SVG Export Plug-In . SVG Version: 6.00 Build 0)  -->
<!DOCTYPE svg PUBLIC "-//W3C//DTD SVG 1.1//EN" "http://www.w3.org/Graphics/SVG/1.1/DTD/svg11.dtd">
<svg version="1.1" id="Layer_1" xmlns="http://www.w3.org/2000/svg" xmlns:xlink="http://www.w3.org/1999/xlink" x="0px" y="0px"
	 width="275px" height="42px" viewBox="0 0 275 42" enable-background="new 0 0 275 42" xml:space="preserve"> 
<g>
	<path fill="#FFFFFF" d="M41.383,36.589c0,2.988,0.053,5.004-3.752,5.004H3.753C1.354,41.593,0,40.88,0,37.839V3.752
		C0,1.042,1.146,0,3.753,0h33.878c1.772,0,3.752,1.042,3.752,3.752V36.589z"/>
	<g>
		<polygon fill="#E94156" points="3.335,3.437 3.337,15.975 6.382,15.975 6.382,12.874 15.744,12.874 15.744,9.829 6.497,9.829 
			6.497,6.613 15.744,6.613 15.749,3.439 		"/>
		<polygon fill="#E94156" points="25.45,3.437 25.453,15.975 28.497,15.975 28.497,12.874 37.859,12.874 37.859,9.829 28.612,9.829 
			28.612,6.613 37.859,6.613 37.863,3.439 		"/>
		<polygon fill="#E94156" points="3.335,25.493 3.337,38.032 6.382,38.032 6.382,34.931 15.744,34.931 15.744,31.887 6.497,31.887 
			6.497,28.671 15.744,28.671 15.749,25.496 		"/>
		<polygon fill="#E94156" points="25.45,25.493 25.453,38.032 28.497,38.032 28.497,34.931 37.859,34.931 37.859,31.887 
			28.612,31.887 28.612,28.671 37.859,28.671 37.863,25.496 		"/>
		<polygon fill="#E94156" points="19.059,9.685 19.062,19.077 9.584,19.077 9.584,22.265 18.976,22.265 18.976,31.614 
			22.078,31.614 22.078,22.351 31.512,22.351 31.512,19.077 22.078,19.079 22.078,9.685 		"/>
	</g>
	<g>
		<path fill="#FFFFFF" d="M51.953,11.979h7.037v2.31h-4.377v4.442h4.091v2.354h-4.091v5.959h-2.66V11.979z"/>
		<path fill="#FFFFFF" d="M65.676,14.244h2.638v12.799h-2.506V26.45c-0.72,0.41-1.544,0.615-2.475,0.615
			c-0.931,0-1.646-0.257-2.144-0.77c-0.499-0.514-0.748-1.254-0.748-2.222v-9.83h2.683v9.368c0,0.703,0.352,1.056,1.056,1.056
			c0.513,0,1.011-0.139,1.497-0.418V14.244z"/>
		<path fill="#FFFFFF" d="M73.196,14.816c0.85-0.425,1.693-0.638,2.53-0.638c0.835,0,1.51,0.238,2.023,0.714
			c0.513,0.477,0.77,1.177,0.77,2.101v10.05h-2.705v-9.478c0-0.63-0.324-0.946-0.969-0.946c-0.499,0-0.997,0.14-1.495,0.418v10.006
			h-2.661V14.244h2.507V14.816z"/>
		<path fill="#FFFFFF" d="M85.775,10.835h2.661v16.208h-2.573v-0.857c-0.63,0.63-1.422,0.946-2.375,0.946
			c-0.954,0-1.68-0.268-2.178-0.803s-0.748-1.287-0.748-2.255v-6.135c0-1.158,0.326-2.064,0.979-2.716s1.603-0.979,2.849-0.979
			h1.385V10.835z M85.797,16.619h-1.144c-0.953,0-1.429,0.462-1.429,1.386v5.651c0,0.704,0.352,1.056,1.056,1.056
			c0.63,0,1.136-0.146,1.517-0.439V16.619z"/>
		<path fill="#FFFFFF" d="M90.789,14.552c0.835-0.278,1.944-0.417,3.322-0.417s2.382,0.304,3.012,0.913s0.945,1.521,0.945,2.738
			v9.258h-2.506V26.12c-0.572,0.659-1.375,0.989-2.408,0.989c-1.034,0-1.793-0.257-2.277-0.771
			c-0.483-0.512-0.726-1.297-0.726-2.353v-0.747c0-0.895,0.213-1.599,0.638-2.111c0.425-0.513,1.114-0.902,2.068-1.166l2.661-0.726
			v-1.474c-0.015-0.454-0.146-0.784-0.396-0.99c-0.249-0.205-0.821-0.308-1.715-0.308c-0.895,0-1.768,0.154-2.618,0.462V14.552z
			 M92.747,23.349v0.638c0,0.747,0.387,1.122,1.165,1.122c0.601,0,1.129-0.162,1.583-0.484v-3.211l-1.562,0.44
			c-0.483,0.132-0.802,0.3-0.957,0.505C92.824,22.564,92.747,22.894,92.747,23.349z"/>
		<path fill="#FFFFFF" d="M103.148,11.979v2.266h2.287v2.243h-2.287v7.28c0,0.689,0.367,1.033,1.1,1.033
			c0.366,0,0.813-0.088,1.341-0.264v2.354c-0.616,0.205-1.224,0.308-1.825,0.308c-2.17,0-3.255-1.063-3.255-3.188v-7.522h-1.253
			v-2.243h1.363l0.793-2.266H103.148z M103.347,28.384c0.469,0,0.704,0.221,0.704,0.66c0,0.309-0.136,0.715-0.407,1.221
			c-0.271,0.506-0.532,0.92-0.781,1.242h-0.946l0.572-3.123H103.347z"/>
		<path fill="#FFFFFF" d="M108.438,13.475c-1.005,0-1.507-0.484-1.507-1.452s0.502-1.452,1.507-1.452
			c1.003,0,1.506,0.484,1.506,1.452S109.441,13.475,108.438,13.475z M107.106,14.486h2.662v12.557h-2.662V14.486z"/>
		<path fill="#FFFFFF" d="M112.121,14.552c0.835-0.278,1.942-0.417,3.32-0.417s2.382,0.304,3.014,0.913
			c0.63,0.608,0.945,1.521,0.945,2.738v9.258h-2.508V26.12c-0.572,0.659-1.375,0.989-2.408,0.989c-1.034,0-1.792-0.257-2.276-0.771
			c-0.484-0.512-0.726-1.297-0.726-2.353v-0.747c0-0.895,0.212-1.599,0.638-2.111c0.425-0.513,1.114-0.902,2.067-1.166l2.661-0.726
			v-1.474c-0.015-0.454-0.146-0.784-0.396-0.99c-0.249-0.205-0.821-0.308-1.715-0.308s-1.767,0.154-2.617,0.462V14.552z
			 M114.078,23.349v0.638c0,0.747,0.388,1.122,1.165,1.122c0.601,0,1.129-0.162,1.583-0.484v-3.211l-1.561,0.44
			c-0.484,0.132-0.803,0.3-0.957,0.505C114.155,22.564,114.078,22.894,114.078,23.349z"/>
		<path fill="#FFFFFF" d="M125.777,11.979h7.038v2.31h-4.375v4.442h4.09v2.354h-4.09v5.959h-2.662V11.979z"/>
		<path fill="#FFFFFF" d="M139.391,14.178h0.439v2.463h-0.595c-0.763,0-1.496,0.22-2.199,0.66v9.742h-2.661V14.244h2.507v0.901
			c0.425-0.278,0.718-0.461,0.879-0.549C138.246,14.317,138.788,14.178,139.391,14.178z"/>
		<path fill="#FFFFFF" d="M142.457,13.475c-1.004,0-1.506-0.484-1.506-1.452s0.502-1.452,1.506-1.452
			c1.005,0,1.507,0.484,1.507,1.452S143.462,13.475,142.457,13.475z M141.127,14.486h2.661v12.557h-2.661V14.486z"/>
		<path fill="#FFFFFF" d="M145.943,23.546v-6.025c0-1.084,0.326-1.938,0.979-2.562c0.652-0.623,1.639-0.935,2.958-0.935
			s2.29,0.312,2.913,0.935c0.623,0.624,0.936,1.478,0.936,2.562v4.222h-5.212v1.605c0,0.527,0.153,0.909,0.462,1.144
			c0.308,0.235,0.895,0.352,1.759,0.352c0.865,0,1.752-0.139,2.661-0.418v2.354c-0.909,0.264-1.921,0.396-3.035,0.396
			C147.417,27.175,145.943,25.966,145.943,23.546z M148.517,19.676h2.749v-2.133c0-0.865-0.459-1.298-1.375-1.298
			s-1.374,0.433-1.374,1.298V19.676z"/>
		<path fill="#FFFFFF" d="M158.215,14.816c0.85-0.425,1.693-0.638,2.528-0.638c0.836,0,1.511,0.238,2.022,0.714
			c0.514,0.477,0.771,1.177,0.771,2.101v10.05h-2.705v-9.478c0-0.63-0.322-0.946-0.968-0.946c-0.498,0-0.996,0.14-1.494,0.418
			v10.006h-2.662V14.244h2.508V14.816z"/>
		<path fill="#FFFFFF" d="M170.793,10.835h2.661v16.208h-2.573v-0.857c-0.63,0.63-1.422,0.946-2.375,0.946s-1.68-0.268-2.178-0.803
			s-0.747-1.287-0.747-2.255v-6.135c0-1.158,0.326-2.064,0.978-2.716c0.652-0.652,1.604-0.979,2.85-0.979h1.385V10.835z
			 M170.815,16.619h-1.144c-0.953,0-1.43,0.462-1.43,1.386v5.651c0,0.704,0.352,1.056,1.056,1.056c0.63,0,1.136-0.146,1.518-0.439
			V16.619z"/>
		<path fill="#FFFFFF" d="M175.169,17.499c0-1.129,0.33-1.972,0.989-2.529c0.661-0.557,1.738-0.835,3.234-0.835
			c0.967,0,1.832,0.117,2.594,0.352v2.354c-0.674-0.234-1.426-0.353-2.254-0.353s-1.363,0.092-1.605,0.275
			c-0.241,0.184-0.362,0.481-0.362,0.891v0.308c0,0.293,0.068,0.524,0.209,0.692c0.14,0.168,0.414,0.377,0.825,0.627l1.824,1.077
			c1.217,0.719,1.825,1.649,1.825,2.794v0.57c0,2.288-1.495,3.432-4.485,3.432c-1.056,0-1.98-0.104-2.771-0.309v-2.396
			c0.718,0.22,1.51,0.33,2.375,0.33s1.455-0.096,1.771-0.286s0.473-0.476,0.473-0.858v-0.307c0-0.294-0.084-0.528-0.253-0.704
			c-0.168-0.176-0.523-0.418-1.066-0.726l-1.648-0.968c-1.115-0.645-1.673-1.576-1.673-2.793V17.499z"/>
		<path fill="#FFFFFF" d="M188.254,11.979h7.038v2.31h-4.377v4.442h4.091v2.354h-4.091v5.959h-2.661V11.979z"/>
		<path fill="#FFFFFF" d="M196.633,17.521c0-1.084,0.326-1.938,0.979-2.562c0.652-0.623,1.643-0.935,2.969-0.935
			s2.317,0.312,2.97,0.935c0.652,0.624,0.979,1.478,0.979,2.562v6.246c0,1.085-0.326,1.939-0.979,2.563s-1.644,0.934-2.97,0.934
			s-2.316-0.311-2.969-0.934s-0.979-1.478-0.979-2.563V17.521z M201.912,17.587c0-0.865-0.445-1.298-1.332-1.298
			s-1.33,0.433-1.33,1.298V23.7c0,0.865,0.443,1.297,1.33,1.297s1.332-0.432,1.332-1.297V17.587z"/>
		<path fill="#FFFFFF" d="M211.697,14.178h0.439v2.463h-0.594c-0.763,0-1.496,0.22-2.199,0.66v9.742h-2.66V14.244h2.506v0.901
			c0.426-0.278,0.719-0.461,0.88-0.549C210.553,14.317,211.096,14.178,211.697,14.178z"/>
		<path fill="#FFFFFF" d="M217.547,11.979h7.037v2.31h-4.377v4.442h4.092v2.354h-4.092v5.959h-2.66V11.979z"/>
		<path fill="#FFFFFF" d="M231.16,14.178h0.439v2.463h-0.595c-0.763,0-1.495,0.22-2.199,0.66v9.742h-2.661V14.244h2.508v0.901
			c0.425-0.278,0.718-0.461,0.879-0.549C230.016,14.317,230.558,14.178,231.16,14.178z"/>
		<path fill="#FFFFFF" d="M234.227,13.475c-1.005,0-1.507-0.484-1.507-1.452s0.502-1.452,1.507-1.452
			c1.004,0,1.507,0.484,1.507,1.452S235.23,13.475,234.227,13.475z M232.896,14.486h2.662v12.557h-2.662V14.486z"/>
		<path fill="#FFFFFF" d="M237.713,23.546v-6.025c0-1.084,0.326-1.938,0.979-2.562c0.652-0.623,1.638-0.935,2.957-0.935
			c1.32,0,2.29,0.312,2.914,0.935c0.623,0.624,0.936,1.478,0.936,2.562v4.222h-5.213v1.605c0,0.527,0.154,0.909,0.461,1.144
			c0.309,0.235,0.895,0.352,1.76,0.352s1.752-0.139,2.662-0.418v2.354c-0.91,0.264-1.922,0.396-3.036,0.396
			C239.186,27.175,237.713,25.966,237.713,23.546z M240.285,19.676h2.75v-2.133c0-0.865-0.46-1.298-1.376-1.298
			s-1.374,0.433-1.374,1.298V19.676z"/>
		<path fill="#FFFFFF" d="M249.982,14.816c0.851-0.425,1.693-0.638,2.53-0.638c0.836,0,1.51,0.238,2.022,0.714
			c0.514,0.477,0.77,1.177,0.77,2.101v10.05h-2.704v-9.478c0-0.63-0.323-0.946-0.968-0.946c-0.499,0-0.998,0.14-1.496,0.418v10.006
			h-2.66V14.244h2.506V14.816z"/>
		<path fill="#FFFFFF" d="M262.563,10.835h2.66v16.208h-2.572v-0.857c-0.631,0.63-1.423,0.946-2.375,0.946
			c-0.953,0-1.68-0.268-2.178-0.803s-0.748-1.287-0.748-2.255v-6.135c0-1.158,0.326-2.064,0.979-2.716s1.602-0.979,2.848-0.979
			h1.387V10.835z M262.585,16.619h-1.146c-0.952,0-1.429,0.462-1.429,1.386v5.651c0,0.704,0.353,1.056,1.056,1.056
			c0.631,0,1.136-0.146,1.519-0.439V16.619z"/>
		<path fill="#FFFFFF" d="M266.938,17.499c0-1.129,0.329-1.972,0.989-2.529c0.66-0.557,1.737-0.835,3.232-0.835
			c0.968,0,1.832,0.117,2.596,0.352v2.354c-0.676-0.234-1.427-0.353-2.255-0.353s-1.363,0.092-1.604,0.275
			c-0.242,0.184-0.363,0.481-0.363,0.891v0.308c0,0.293,0.069,0.524,0.209,0.692c0.139,0.168,0.414,0.377,0.824,0.627l1.825,1.077
			c1.218,0.719,1.826,1.649,1.826,2.794v0.57c0,2.288-1.495,3.432-4.487,3.432c-1.055,0-1.979-0.104-2.77-0.309v-2.396
			c0.718,0.22,1.51,0.33,2.374,0.33c0.865,0,1.455-0.096,1.771-0.286c0.314-0.19,0.473-0.476,0.473-0.858v-0.307
			c0-0.294-0.084-0.528-0.253-0.704s-0.524-0.418-1.066-0.726l-1.649-0.968c-1.113-0.645-1.671-1.576-1.671-2.793V17.499z"/>
	</g>
</g>
</svg>
